<?xml version="1.0" standalone="no"?>
<!DOCTYPE svg PUBLIC "-//W3C//DTD SVG 20010904//EN"
 "http://www.w3.org/TR/2001/REC-SVG-20010904/DTD/svg10.dtd">
<svg version="1.0" xmlns="http://www.w3.org/2000/svg"
 width="2500.000000pt" height="2500.000000pt" viewBox="0 0 2500.000000 2500.000000"
 preserveAspectRatio="xMidYMid meet">
<metadata>
Created by potrace 1.11, written by Peter Selinger 2001-2013
</metadata>
<g transform="translate(0.000000,2500.000000) scale(0.100000,-0.100000)"
fill="#000000" stroke="none">
<path d="M3792 20405 c0 -2527 4 -4597 8 -4600 4 -3 102 50 216 116 115 67
225 130 244 141 101 58 509 293 530 306 14 9 43 26 65 38 22 12 123 70 225
129 102 59 201 116 220 127 281 160 651 375 672 389 15 11 30 19 32 19 3 0 34
17 68 38 35 21 70 41 78 45 8 4 33 18 55 31 22 14 51 31 65 39 14 7 111 63
215 123 310 180 1108 640 1140 658 17 9 44 25 60 35 28 16 446 259 523 303 18
10 93 53 165 95 73 42 238 137 367 211 129 74 240 138 245 142 6 4 30 19 55
32 43 24 110 62 560 323 113 65 221 128 242 139 20 12 114 66 209 121 94 55
190 111 213 124 22 13 190 109 371 214 182 104 350 201 375 215 25 14 57 33
72 43 14 11 28 19 31 19 3 0 41 21 84 46 43 26 96 57 118 69 223 127 437 254
438 261 0 7 -260 167 -312 191 -7 3 -52 29 -100 56 -173 101 -327 190 -366
212 -22 12 -150 86 -285 165 -135 78 -263 152 -285 164 -22 13 -56 32 -75 43
-19 11 -62 36 -95 55 -33 19 -119 69 -192 111 -72 42 -147 85 -165 95 -18 11
-89 52 -158 92 -69 40 -226 131 -350 202 -124 71 -232 134 -240 139 -70 41
-267 154 -415 239 -99 57 -277 160 -395 228 -118 69 -244 142 -280 162 -36 20
-97 56 -137 78 -39 23 -87 50 -105 61 -18 10 -95 55 -172 100 -76 44 -140 81
-141 81 -2 0 -87 50 -190 110 -103 61 -189 110 -192 110 -3 0 -68 38 -173 100
-30 18 -284 165 -319 185 -20 11 -56 32 -81 47 -143 82 -440 254 -467 270 -48
26 -74 41 -328 188 -126 73 -243 141 -260 150 -16 10 -55 32 -85 50 -30 18
-71 42 -90 52 -19 10 -48 27 -65 37 -16 10 -50 29 -75 43 -56 31 -150 85 -170
98 -19 11 -195 113 -505 292 -132 76 -247 143 -255 148 -8 6 -22 13 -30 17 -8
4 -43 24 -78 45 -34 21 -64 38 -66 38 -2 0 -33 17 -67 38 -35 21 -94 55 -131
76 l-66 37 0 -4596z"/>
<path d="M21060 24917 c-118 -69 -195 -113 -265 -151 -11 -6 -22 -13 -25 -16
-3 -3 -48 -30 -100 -59 -113 -64 -97 -55 -385 -221 -126 -73 -267 -155 -313
-181 -45 -27 -85 -49 -88 -49 -3 0 -17 -8 -32 -19 -15 -10 -193 -114 -397
-231 -390 -224 -541 -311 -745 -430 -69 -40 -143 -83 -165 -95 -22 -12 -74
-42 -115 -67 -41 -24 -82 -47 -90 -51 -8 -4 -31 -17 -50 -28 -19 -12 -109 -64
-200 -117 -91 -52 -208 -120 -260 -150 -52 -30 -108 -63 -125 -72 -32 -19 -56
-32 -320 -185 -93 -54 -183 -105 -200 -115 -40 -23 -196 -113 -385 -223 -85
-49 -180 -103 -210 -120 -30 -16 -62 -35 -70 -42 -8 -7 -19 -14 -25 -16 -10
-4 -215 -121 -245 -140 -8 -5 -114 -66 -235 -136 -121 -69 -260 -149 -310
-178 -49 -28 -144 -82 -210 -120 -66 -37 -136 -78 -155 -90 -29 -18 -165 -97
-350 -203 -19 -11 -91 -52 -160 -92 -69 -40 -150 -86 -180 -103 -30 -16 -62
-36 -71 -43 -8 -8 -18 -14 -22 -14 -3 0 -30 -14 -59 -31 -29 -18 -69 -41 -88
-52 -19 -10 -123 -70 -230 -132 -107 -62 -211 -122 -230 -133 -19 -11 -177
-102 -350 -202 -173 -100 -325 -187 -337 -193 -13 -6 -23 -14 -23 -18 0 -4 53
-37 118 -75 64 -37 182 -105 262 -151 80 -46 152 -88 160 -93 8 -6 22 -13 30
-17 8 -3 26 -14 40 -23 14 -9 50 -31 80 -47 30 -17 197 -113 370 -213 173
-100 331 -192 350 -203 29 -16 131 -75 466 -268 23 -13 90 -52 150 -87 60 -35
116 -67 124 -72 58 -35 262 -152 295 -170 22 -12 54 -29 70 -39 39 -24 148
-87 205 -119 25 -13 50 -28 55 -32 6 -4 30 -19 55 -33 44 -24 191 -109 220
-127 8 -5 60 -35 115 -66 55 -31 154 -88 220 -127 66 -38 136 -78 155 -89 19
-10 49 -27 65 -37 28 -17 450 -261 525 -304 66 -37 355 -204 469 -271 62 -36
115 -66 117 -66 3 0 21 -11 42 -23 20 -13 129 -77 242 -142 113 -65 219 -126
235 -136 17 -10 41 -24 55 -32 34 -18 475 -273 622 -359 64 -37 121 -68 127
-68 6 0 11 -4 11 -9 0 -5 8 -11 18 -14 9 -4 35 -17 57 -30 36 -22 455 -264
533 -308 17 -11 47 -27 65 -38 17 -10 136 -78 262 -151 127 -73 284 -164 350
-202 66 -38 127 -73 135 -78 8 -5 53 -31 100 -58 243 -142 385 -222 391 -222
9 0 10 9189 1 9193 -4 2 -68 -32 -142 -76z"/>
<path d="M12465 19610 c-55 -32 -163 -94 -240 -139 -27 -16 -93 -53 -145 -83
-52 -30 -135 -78 -183 -107 -49 -28 -90 -51 -93 -51 -3 0 -73 -42 -129 -78
-11 -6 -27 -15 -35 -19 -8 -4 -86 -49 -174 -100 -87 -51 -160 -93 -163 -93 -2
0 -22 -12 -44 -26 -23 -14 -62 -37 -87 -51 -45 -25 -791 -454 -822 -473 -27
-16 -540 -313 -605 -350 -16 -10 -75 -43 -130 -75 -55 -32 -113 -66 -130 -75
-122 -70 -298 -172 -326 -189 -19 -12 -41 -24 -49 -28 -8 -4 -59 -33 -113 -65
-53 -32 -100 -58 -103 -58 -2 0 -17 -8 -32 -19 -15 -10 -108 -65 -207 -121
-99 -57 -232 -133 -295 -170 -312 -182 -692 -400 -698 -400 -3 0 -13 -6 -21
-14 -9 -7 -47 -30 -85 -50 -37 -21 -96 -54 -130 -75 -33 -20 -112 -66 -174
-102 -62 -35 -128 -72 -145 -83 -18 -10 -108 -62 -202 -116 -93 -54 -210 -122
-260 -150 -49 -29 -103 -60 -120 -70 -16 -9 -176 -101 -355 -205 -179 -103
-345 -199 -370 -213 -25 -14 -74 -42 -109 -64 -34 -21 -65 -38 -66 -38 -2 0
-54 -29 -115 -65 -61 -36 -130 -76 -153 -89 -61 -34 -270 -154 -287 -165 -8
-5 -80 -47 -160 -93 -79 -46 -165 -95 -190 -109 -25 -15 -88 -51 -140 -81 -52
-30 -165 -95 -250 -145 -85 -49 -192 -111 -237 -137 l-83 -48 0 -4908 0 -4909
29 -20 c15 -11 39 -25 52 -31 13 -5 33 -16 44 -22 40 -26 253 -150 1040 -603
127 -73 281 -162 344 -199 62 -36 115 -66 117 -66 3 0 23 -12 47 -27 23 -15
56 -34 72 -43 17 -9 86 -49 155 -89 69 -40 179 -104 245 -143 66 -38 127 -73
135 -78 51 -31 313 -180 316 -180 2 0 44 -25 94 -55 50 -30 92 -55 94 -55 2 0
61 -34 131 -75 69 -41 128 -75 131 -75 2 0 21 -11 42 -24 29 -19 581 -339 718
-416 76 -43 632 -365 659 -382 17 -10 37 -21 45 -25 8 -4 92 -52 185 -106 162
-94 205 -119 285 -165 19 -10 76 -43 125 -72 50 -29 106 -61 125 -72 19 -11
76 -44 125 -73 50 -29 110 -63 135 -77 25 -14 185 -106 355 -205 171 -99 405
-234 520 -300 116 -67 226 -130 245 -142 43 -25 122 -70 175 -100 22 -13 65
-38 95 -56 30 -18 75 -44 100 -58 25 -13 142 -81 260 -149 118 -68 406 -235
640 -370 234 -135 441 -255 460 -267 19 -11 42 -24 50 -28 8 -4 37 -20 63 -35
55 -32 37 -37 196 55 55 31 104 57 109 57 6 0 12 3 14 8 2 6 109 70 268 159
19 11 60 35 90 53 30 18 75 44 100 58 25 14 61 34 80 45 19 11 58 33 85 49 28
16 57 33 65 38 17 12 596 345 1105 637 187 107 352 204 367 214 15 10 29 19
32 19 2 0 100 56 218 124 374 216 602 348 643 371 22 13 118 68 214 124 95 56
177 101 182 101 5 0 9 5 9 10 0 6 5 10 10 10 6 0 90 47 188 104 97 57 195 113
217 125 22 12 69 39 105 60 154 90 244 142 293 169 17 11 91 53 162 94 178
104 196 114 326 188 63 35 116 68 117 72 2 4 8 8 14 8 6 0 49 23 97 51 47 28
93 54 101 59 32 19 196 114 225 130 17 9 66 38 110 65 44 26 100 58 125 71 25
14 59 33 75 43 28 17 61 36 138 80 18 10 89 51 157 91 139 81 174 101 240 138
25 14 62 36 82 49 21 12 40 23 43 23 3 0 31 16 61 35 30 19 56 35 59 35 4 0
69 38 313 181 45 27 85 49 87 49 3 0 24 11 46 26 22 14 55 33 72 43 45 26 209
120 227 131 8 5 38 23 66 38 27 16 70 41 95 54 24 14 85 49 134 78 78 45 357
206 550 318 33 19 75 43 93 53 17 11 48 28 68 39 19 11 46 27 58 35 l23 15 0
4904 c0 2698 -3 4909 -6 4914 -3 5 -26 20 -51 34 -25 14 -133 76 -240 138
-205 119 -237 137 -297 171 -41 23 -166 96 -198 116 -11 7 -33 19 -50 28 -16
9 -46 25 -65 37 -19 12 -53 31 -75 43 -22 13 -107 61 -188 109 -82 47 -167 97
-190 110 -23 13 -98 56 -167 96 -69 40 -138 80 -155 90 -115 66 -375 216 -400
230 -112 65 -361 208 -415 240 -36 21 -166 96 -290 168 -124 71 -241 139 -260
151 -19 11 -42 24 -50 28 -8 4 -60 34 -115 66 -55 33 -118 69 -140 82 -77 43
-430 245 -445 255 -14 8 -157 92 -225 130 -16 10 -102 59 -190 110 -213 124
-206 120 -315 182 -52 30 -268 155 -480 278 -212 122 -410 236 -440 253 -30
17 -111 64 -179 104 -67 40 -125 73 -127 73 -2 0 -37 20 -77 45 -41 25 -78 45
-81 45 -4 0 -19 8 -34 19 -15 10 -151 90 -302 176 -151 87 -328 189 -393 227
-64 38 -135 79 -157 91 -43 24 -386 222 -410 237 -27 17 -124 72 -180 103 -30
17 -67 38 -82 49 -14 10 -28 18 -31 18 -3 0 -66 36 -141 80 -139 81 -582 337
-646 373 -31 17 -68 38 -185 108 -30 17 -31 17 -80 -11z"/>
</g>
</svg>
