<svg xmlns="http://www.w3.org/2000/svg" xmlns:xlink="http://www.w3.org/1999/xlink" viewBox="0 0 216.41 232.01"><defs><radialGradient id="a" cx="108.21" cy="116" r="105.45" gradientUnits="userSpaceOnUse"><stop offset="0" stop-color="#fff"/><stop offset="0.52" stop-color="#ffdaff"/><stop offset="0.86" stop-color="#ffc6ff"/><stop offset="0.88" stop-color="#f8c2ff"/><stop offset="0.95" stop-color="#dfb3ff"/><stop offset="1" stop-color="#d6aeff"/></radialGradient></defs><title>logo.new</title><path d="M108.21,221.45a105.44,105.44,0,0,1-74.56-180A105.45,105.45,0,0,1,182.77,190.57,104.79,104.79,0,0,1,108.21,221.45Z" style="fill:url(#a)"/><path d="M108.21,13.08a103,103,0,0,1,40.06,197.76A102.92,102.92,0,0,1,35.43,43.23a102.62,102.62,0,0,1,72.78-30.15m0-5a108,108,0,1,0,108,108,108,108,0,0,0-108-108Z"/><polygon points="55.25 171.72 55.25 110.46 108.3 79.83 161.34 110.46 161.34 171.72 108.3 202.35 55.25 171.72" style="fill:#d4beff"/><path d="M108.3,82.74l50.53,29.18v58.34L108.3,199.44,57.77,170.26V111.92L108.3,82.74m0-5.81L52.73,109v64.16l55.57,32.09,55.56-32.09V109L108.3,76.93Z"/><polygon points="53.82 46.23 98.36 71.95 53.82 97.67 53.82 46.23" style="fill:#d4beff"/><path d="M56.34,50.6,93.33,72l-37,21.36V50.6m-5-8.73V102L103.4,72,51.3,41.87Z"/><polygon points="118.05 71.95 162.59 46.23 162.59 97.67 118.05 71.95" style="fill:#d4beff"/><path d="M160.08,50.6V93.31L123.09,72l37-21.35m5-8.73L113,72,165.11,102V41.87Z"/><path d="M129.05,176.15a2.55,2.55,0,0,1-1.79-.74l-19.05-19.06L89.15,175.41a2.52,2.52,0,0,1-3.56-3.56l22.62-22.62,22.62,22.62a2.52,2.52,0,0,1-1.78,4.3Z"/><path d="M83.93,134.23,69.08,119.38a2.52,2.52,0,0,1,3.57-3.56L83.93,127.1l11.28-11.28a2.52,2.52,0,0,1,3.56,3.56Z"/><path d="M132.49,134.23l-14.85-14.85a2.52,2.52,0,0,1,3.56-3.56l11.29,11.28,11.28-11.28a2.52,2.52,0,0,1,3.56,3.56Z"/></svg>