<svg xmlns="http://www.w3.org/2000/svg" xmlns:xlink="http://www.w3.org/1999/xlink" viewBox="0 0 713.36 175.87"><defs><radialGradient id="a" cx="150.45" cy="87.98" r="85.83" gradientUnits="userSpaceOnUse"><stop offset="0" stop-color="#fff"/><stop offset="0.52" stop-color="#ffdaff"/><stop offset="0.86" stop-color="#ffc6ff"/><stop offset="0.88" stop-color="#f8c2ff"/><stop offset="0.95" stop-color="#dfb3ff"/><stop offset="1" stop-color="#d6aeff"/></radialGradient></defs><title>logo_full.svg.new</title><path d="M326.58,77.19l-15.43-7.72-46.32-7.72-7.72-3.86V27l23.16-11.58L288,23.16V11.58L311.15,0l15.43,15.44V38.6l23.16,23.15v3.86Zm0-7.72L342,61.75,318.86,38.6V15.44l-7.71-7.72-15.44,7.72,7.72,7.72V34.74L288,30.88l-7.72-7.72-15.44,7.72,7.72,7.72,30.88,7.72Z" style="fill:#d4beff"/><path d="M411.5,77.19l-54-27V19.3L380.62,7.72l54,54v3.86Zm0-7.72,15.43-7.72L380.62,15.44l-15.44,7.72Z" style="fill:#d4beff"/><path d="M496.41,84.91l-54-27V27l54-27,15.44,15.44V61.75l7.71,7.72v3.86Zm0-7.72,15.44-7.72L488.69,46.32l15.44-7.72-7.72-7.72L481,38.6l-7.72-7.72,30.88-15.44-7.72-7.72L450.09,30.88Z" style="fill:#d4beff"/><path d="M581.32,84.91l-54-27V27l54-27,15.44,15.44V61.75l7.72,7.72v3.86Zm0-7.72,15.44-7.72L573.6,46.32,589,38.6l-7.72-7.72L565.88,38.6l-7.72-7.72L589,15.44l-7.72-7.72L535,30.88Z" style="fill:#d4beff"/><path d="M311.15,175.86l-54-27V118l23.16-11.57L318.86,145l30.88-15.44L365.18,145v3.86Zm0-7.72L357.46,145l-7.72-7.72L318.86,152.7l-38.59-38.6-15.44,7.72Z" style="fill:#d4beff"/><path d="M426.93,168.14l-54-27V110.24l23.16-11.57,54,54v3.86Zm0-7.72,15.44-7.72-46.31-46.31-15.44,7.71Z" style="fill:#d4beff"/><path d="M511.85,175.86l-54-27V118l54-27,15.43,15.44V152.7l7.72,7.72v3.86Zm0-7.72,15.43-7.72-23.15-23.16,15.43-7.72-7.71-7.72-15.44,7.72-7.72-7.72,30.87-15.43-7.71-7.72-46.32,23.15Z" style="fill:#d4beff"/><path d="M596.76,175.86l-54-27V118l54-27,15.44,15.44v34.73l23.15-11.58L650.79,145v3.86Zm0-7.72L643.07,145l-7.72-7.72L604.48,152.7,589,137.26l15.44-7.72-7.72-7.72-15.44,7.72-7.72-7.72,30.88-15.43-7.72-7.72-46.32,23.15Z" style="fill:#d4beff"/><path d="M150.45,173.82A85.84,85.84,0,0,1,89.76,27.29,85.83,85.83,0,0,1,211.14,148.68,85.26,85.26,0,0,1,150.45,173.82Z" style="fill:url(#a)"/><path d="M150.45,4.2a83.8,83.8,0,0,1,32.61,161A83.78,83.78,0,0,1,91.21,28.74,83.58,83.58,0,0,1,150.45,4.2m0-4.1A87.89,87.89,0,1,0,238.33,88,87.88,87.88,0,0,0,150.45.1Z"/><polygon points="107.34 133.34 107.34 83.47 150.52 58.54 193.71 83.47 193.71 133.34 150.52 158.27 107.34 133.34" style="fill:#d4beff"/><path d="M150.52,60.91l41.13,23.75v47.49L150.52,155.9l-41.13-23.75V84.66l41.13-23.75m0-4.74L105.29,82.29v52.23l45.23,26.11,45.23-26.11V82.29L150.52,56.17Z"/><polygon points="106.18 31.19 142.44 52.13 106.18 73.06 106.18 31.19" style="fill:#d4beff"/><path d="M108.23,34.74l30.11,17.39L108.23,69.51V34.74m-4.1-7.1v49l42.41-24.48L104.13,27.64Z"/><polygon points="158.46 52.13 194.72 31.19 194.72 73.06 158.46 52.13" style="fill:#d4beff"/><path d="M192.67,34.74V69.51L162.56,52.13l30.11-17.39m4.1-7.1L154.36,52.13l42.41,24.48v-49Z"/><path d="M167.41,136.94a2.05,2.05,0,0,1-1.45-.6l-15.51-15.51-15.51,15.51a2.05,2.05,0,0,1-2.9-2.9L150.45,115l18.41,18.41a2.05,2.05,0,0,1-1.45,3.5Z"/><path d="M130.69,102.82,118.6,90.73a2.05,2.05,0,0,1,2.9-2.9L130.69,97l9.18-9.19a2.05,2.05,0,0,1,2.9,2.9Z"/><path d="M170.21,102.82,158.13,90.73a2.05,2.05,0,1,1,2.9-2.9L170.21,97l9.19-9.19a2.05,2.05,0,1,1,2.9,2.9Z"/></svg>